#!OML:ASF H:\Terrain\Patient Classification 1\Terrain2\Thursday\justin.ASF
:FULLY-SPECIFIED
:DEGREES
3631
root 9.40149 17.8896 30.9731 1.93604 -34.4405 -3.2523
lowerback 6.38751 0.019568 1.39748
upperback 2.23284 0.128474 2.50679
thorax -1.28302 0.0492918 1.785
lowerneck -11.4385 -8.31366 -12.2339
upperneck 25.1912 -10.8742 6.01942
head 11.0527 -5.53037 2.7279
rclavicle 1.2424e-014 -3.10104e-014
rhumerus -30.4994 -18.1155 -74.0748
rradius 22.0141
rwrist -5.00533
rhand -20.2369 13.8922
rfingers 7.12502
rthumb 6.11107 -15.9997
lclavicle 1.2424e-014 -3.10104e-014
lhumerus -38.9416 10.332 79.5672
lradius 29.1624
lwrist 1.88961
lhand -17.2413 21.2122
lfingers 7.12502
lthumb 9.00247 51.0001
rfemur -12.7547 -9.34667 22.883
rtibia 39.7522
rfoot -22.4104 -11.4094
rtoes 8.80991
lfemur -10.7287 3.4834 -17.2312
ltibia 31.2794
lfoot -15.6021 -3.27998
ltoes -2.61719
3632
root 9.41844 17.8901 30.9938 1.67965 -35.6569 -2.73097
lowerback 6.33272 0.00725028 0.934837
upperback 2.26088 0.0793297 2.32153
thorax -1.22334 0.0245624 1.85734
lowerneck -10.9011 -8.19311 -12.6161
upperneck 24.4735 -10.873 6.87388
head 10.7554 -5.48349 3.11862
rclavicle -4.43787e-014 2.38542e-014
rhumerus -30.3624 -18.2643 -74.0991
rradius 22.1397
rwrist -4.4677
rhand -20.5633 14.042
rfingers 7.12502
rthumb 5.79598 -15.8587
lclavicle -4.43787e-014 2.38542e-014
lhumerus -39.1164 10.7208 79.1249
lradius 29.3435
lwrist 1.11006
lhand -17.5707 20.916
lfingers 7.12502
lthumb 8.68468 50.7173
rfemur -12.8154 -10.2052 22.3944
rtibia 40.5319
rfoot -22.5918 -11.2261
rtoes 11.5822
lfemur -10.4664 3.94145 -17.834
ltibia 31.1414
lfoot -15.7962 -2.48456
ltoes -3.51383
3633
root 9.43352 17.8819 31.0079 1.69886 -36.8625 -2.72306
lowerback 6.25727 -0.125991 0.776832
upperback 2.3679 -0.114332 2.23085
thorax -1.06626 -0.0732734 1.86602
lowerneck -11.6728 -8.07991 -11.8007
upperneck 25.0082 -10.6171 6.05867
head 10.9738 -5.36701 2.70456
rclavicle 9.16397e-014 -1.03368e-014
rhumerus -29.7868 -17.2262 -74.7382
rradius 22.1768
rwrist -5.10186
rhand -20.4892 13.8628
rfingers 7.12502
rthumb 5.8675 -16.036
lclavicle 9.16397e-014 -1.03368e-014
lhumerus -39.2293 11.2754 78.5269
lradius 29.6028
lwrist 0.76978
lhand -17.369 20.8655
lfingers 7.12502
lthumb 8.87925 50.6586
rfemur -12.8097 -11.1594 22.4342
rtibia 41.2436
rfoot -22.2221 -11.3677
rtoes 11.3125
lfemur -10.2604 4.41294 -17.9038
ltibia 31.0381
lfoot -15.8405 -2.00721
ltoes -3.11843
3634
root 9.44974 17.8756 31.0146 1.97717 -38.1011 -3.00305
lowerback 6.20212 -0.186747 0.825102
upperback 2.39314 -0.195229 2.24771
thorax -1.00753 -0.114274 1.86154
lowerneck -11.8765 -8.05046 -11.623
upperneck 25.0007 -10.5662 5.95289
head 10.9872 -5.33588 2.6379
rclavicle -1.93318e-014 -5.1684e-015
rhumerus -29.6054 -15.1573 -75.4496
rradius 22.7706
rwrist -6.69344
rhand -20.1577 13.4692
rfingers 7.12502
rthumb 6.18753 -16.4205
lclavicle -1.93318e-014 -5.1684e-015
lhumerus -39.3591 10.9663 78.3927
lradius 29.8119
lwrist 1.1401
lhand -17.3401 20.8215
lfingers 7.12502
lthumb 8.9072 50.6135
rfemur -12.9114 -11.8343 22.7484
rtibia 41.8504
rfoot -21.7474 -11.7214
rtoes 9.83525
lfemur -10.2393 4.90476 -17.7126
ltibia 31.0538
lfoot -15.7361 -1.52869
ltoes -2.30818
3635
root 9.46317 17.8714 31.0235 2.10441 -39.2654 -3.09843
lowerback 6.19182 -0.385616 0.611985
upperback 2.43717 -0.474769 2.24334
thorax -0.947411 -0.255601 1.9959
lowerneck -12.148 -7.8678 -11.2637
upperneck 24.9201 -10.3337 5.87584
head 10.9574 -5.20107 2.57878
rclavicle 2.55935e-014 1.98785e-015
rhumerus -29.7665 -13.3776 -76.21
rradius 23.9672
rwrist -7.30858
rhand -19.8858 13.028
rfingers 7.12502
rthumb 6.4501 -16.8538
lclavicle 2.55935e-014 1.98785e-015
lhumerus -39.5527 10.7838 78.1617
lradius 30.0206
lwrist 1.54798
lhand -17.524 21.017
lfingers 7.12502
lthumb 8.72967 50.8164
rfemur -12.8927 -12.4991 22.8593
rtibia 42.3371
rfoot -21.4244 -11.9863
rtoes 8.77607
lfemur -10.2139 5.36786 -17.7121
ltibia 31.2059
lfoot -15.8567 -0.885311
ltoes -2.6239
3636
root 9.4749 17.8643 31.0416 2.16145 -40.4269 -3.22573
lowerback 6.0713 0.0504748 1.19805
upperback 2.33965 0.138586 2.20785
thorax -0.997531 0.0537974 1.58751
lowerneck -11.1388 -8.19003 -12.4407
upperneck 24.591 -10.8862 6.782
head 10.8286 -5.48612 3.04545
rclavicle -7.60351e-014 3.97569e-016
rhumerus -30.809 -14.0118 -75.5078
rradius 25.043
rwrist -7.4266
rhand -20.189 12.8877
rfingers 7.12502
rthumb 6.15734 -17.0028
lclavicle -7.60351e-014 3.97569e-016
lhumerus -39.4899 9.08616 79.0155
lradius 29.8911
lwrist 1.86389
lhand -17.9805 21.1514
lfingers 7.12502
lthumb 8.28911 50.9688
rfemur -12.6754 -13.3844 22.9247
rtibia 42.7614
rfoot -21.1284 -12.2547
rtoes 6.98999
lfemur -10.0348 5.68058 -17.6812
ltibia 31.3376
lfoot -16.1429 -0.299755
ltoes -1.60959
3637
root 9.48884 17.8545 31.0599 2.26981 -41.6768 -3.38068
lowerback 6.00603 0.158046 1.43543
upperback 2.33668 0.292291 2.18887
thorax -0.965794 0.131235 1.42424
lowerneck -10.941 -8.18878 -12.7138
upperneck 24.5212 -10.9335 7.07828
head 10.8056 -5.50788 3.19605
rclavicle -8.08557e-014 -1.86858e-014
rhumerus -30.6951 -14.5542 -75.334
rradius 24.9527
rwrist -7.17413
rhand -20.699 13.4179
rfingers 7.12502
rthumb 5.66492 -16.4864
lclavicle -8.08557e-014 -1.86858e-014
lhumerus -39.5393 8.35049 79.3016
lradius 29.9071
lwrist 2.29168
lhand -18.7882 21.1904
lfingers 7.12502
lthumb 7.50963 51.0371
rfemur -12.5 -14.0763 22.9879
rtibia 43.1745
rfoot -20.9091 -12.4683
rtoes 6.25447
lfemur -9.82787 6.05668 -17.6495
ltibia 31.3539
lfoot -16.1852 0.341464
ltoes -1.30036
3638
root 9.5031 17.8516 31.0721 2.23752 -42.9602 -3.22689
lowerback 6.1067 0.157179 1.14004
upperback 2.23154 0.2805 2.21442
thorax -1.13144 0.124251 1.61708
lowerneck -11.0825 -8.17819 -12.7474
upperneck 24.7679 -10.8907 6.9608
head 10.9155 -5.50506 3.16035
rclavicle -1.21259e-014 -9.54166e-015
rhumerus -30.5153 -14.4865 -75.2524
rradius 24.821
rwrist -6.97714
rhand -20.5931 14.0403
rfingers 7.12502
rthumb 5.76725 -15.8612
lclavicle -1.21259e-014 -9.54166e-015
lhumerus -39.9058 8.25806 79.3624
lradius 30.1143
lwrist 2.27367
lhand -18.9494 21.2586
lfingers 7.12502
lthumb 7.35401 51.1107
rfemur -12.4646 -14.5446 22.8043
rtibia 43.5729
rfoot -20.8243 -12.3044
rtoes 6.74398
lfemur -9.70178 6.3775 -17.897
ltibia 31.3552
lfoot -16.0652 1.24164
ltoes -2.47665
3639
root 9.51966 17.8547 31.0832 2.12606 -44.3991 -2.7118
lowerback 6.04277 0.251196 0.710059
upperback 2.09991 0.382787 2.09509
thorax -1.23551 0.175971 1.72855
lowerneck -11.2737 -8.21323 -12.6463
upperneck 25.0088 -10.9143 6.77093
head 11.0276 -5.52634 3.06432
rclavicle 3.42904e-015 -9.14409e-015
rhumerus -30.6295 -13.2969 -75.5996
rradius 25.4818
rwrist -7.93516
rhand -20.1227 14.0209
rfingers 7.12502
rthumb 6.22132 -15.8677
lclavicle 3.42904e-015 -9.14409e-015
lhumerus -40.1314 7.978 79.4063
lradius 30.2472
lwrist 2.42146
lhand -18.8203 21.1503
lfingers 7.12502
lthumb 7.4786 50.9981
rfemur -12.6249 -15.0307 22.3076
rtibia 43.9
rfoot -20.7572 -11.6611
rtoes 6.77027
lfemur -9.79224 6.48636 -18.4813
ltibia 31.3983
lfoot -16.167 2.31573
ltoes -2.31287
3640
root 9.53368 17.8485 31.0937 2.0982 -45.8366 -2.44259
lowerback 5.91586 0.336335 0.530514
upperback 2.08135 0.482381 1.94022
thorax -1.18674 0.226188 1.66336
lowerneck -11.4648 -8.18091 -12.3207
upperneck 25.0737 -10.8693 6.56334
head 11.0491 -5.49598 2.93654
rclavicle -1.6201e-014 -8.34896e-015
rhumerus -30.6481 -10.8823 -76.65
rradius 26.6597
rwrist -10.7702
rhand -20.3235 13.4496
rfingers 7.12502
rthumb 6.02752 -16.4446
lclavicle -1.6201e-014 -8.34896e-015
lhumerus -40.1818 7.62655 79.2911
lradius 30.3607
lwrist 2.90525
lhand -19.0431 20.9569
lfingers 7.12502
lthumb 7.26359 50.8122
rfemur -12.5841 -15.412 21.9914
rtibia 44.0499
rfoot -20.7453 -11.0483
rtoes 7.55577
lfemur -9.85802 6.58909 -18.8437
ltibia 31.5556
lfoot -16.4829 3.18837
ltoes -0.710486
3641
root 9.54006 17.8377 31.0985 2.0909 -46.8462 -2.69289
lowerback 6.09625 0.235574 0.568277
upperback 2.14364 0.350756 1.97948
thorax -1.21969 0.159352 1.69133
lowerneck -11.5605 -8.07589 -12.1583
upperneck 25.1283 -10.7176 6.43036
head 11.0522 -5.42734 2.88226
rclavicle 7.12643e-014 -9.14409e-015
rhumerus -29.4982 -17.8256 -74.4521
rradius 23.7647
rwrist -3.74635
rhand -19.7566 15.7526
rfingers 7.12502
rthumb 6.57476 -14.1254
lclavicle 7.12643e-014 -9.14409e-015
lhumerus -40.2798 7.75406 79.0495
lradius 30.503
lwrist 3.07214
lhand -19.1219 21.0486
lfingers 7.12502
lthumb 7.18748 50.9066
rfemur -12.0417 -15.838 22.1303
rtibia 43.9546
rfoot -20.5408 -11.2404
rtoes 7.57416
lfemur -9.66826 6.86264 -18.6591
ltibia 31.8601
lfoot -16.6974 3.50465
ltoes 1.21216
3642
root 9.54419 17.8268 31.0936 2.71857 -47.8204 -3.74553
lowerback 6.29428 0.098087 0.987336
upperback 2.16788 0.196531 2.26031
thorax -1.30024 0.08048 1.75624
lowerneck -11.5585 -7.9405 -12.2758
upperneck 25.1721 -10.5268 6.49221
head 11.0584 -5.34848 2.95329
rclavicle -3.28989e-014 8.74653e-015
rhumerus -29.7755 -13.7702 -75.8071
rradius 25.5741
rwrist -7.68623
rhand -20.486 14.7631
rfingers 7.12502
rthumb 5.87063 -15.1355
lclavicle -3.28989e-014 8.74653e-015
lhumerus -40.4156 8.20446 78.8196
lradius 30.6122
lwrist 3.02832
lhand -19.0307 21.1945
lfingers 7.12502
lthumb 7.27554 51.0495
rfemur -11.5006 -16.0099 23.0003
rtibia 43.6599
rfoot -19.9866 -11.9226
rtoes 7.22475
lfemur -9.60916 7.35455 -17.8065
ltibia 32.2442
lfoot -16.605 3.86184
ltoes -0.20159
3643
root 9.54911 17.8168 31.0949 3.54762 -49.1331 -4.81597
lowerback 6.27513 0.139466 1.5658
upperback 2.15794 0.285845 2.4435
thorax -1.29961 0.124034 1.61365
lowerneck -11.4475 -7.91868 -12.6014
upperneck 25.1885 -10.5404 6.82429
head 11.085 -5.35483 3.12847
rclavicle 1.69961e-014 3.57812e-015
rhumerus -29.8935 -13.7595 -75.73
rradius 26.1536
rwrist -7.82527
rhand -20.2673 15.0859
rfingers 7.12502
rthumb 6.0818 -14.8068
lclavicle 1.69961e-014 3.57812e-015
lhumerus -40.5328 8.44563 78.6207
lradius 30.6306
lwrist 2.98152
lhand -19.0509 21.274
lfingers 7.12502
lthumb 7.25607 51.1296
rfemur -11.0766 -15.7711 23.809
rtibia 43.2708
rfoot -19.4448 -12.3611
rtoes 6.651
lfemur -9.59774 7.91388 -17.0637
ltibia 32.5547
lfoot -16.4586 4.65961
ltoes -3.96068
3644
root 9.55328 17.8079 31.1109 3.45088 -50.3968 -4.62021
lowerback 6.14082 0.217614 1.52596
upperback 2.1376 0.382828 2.32131
thorax -1.24698 0.173261 1.50321
lowerneck -11.3649 -7.96169 -12.7996
upperneck 25.2897 -10.652 7.05244
head 11.1462 -5.40551 3.22941
rclavicle 1.53959e-013 -3.85642e-014
rhumerus -29.9024 -14.4024 -75.4815
rradius 26.1692
rwrist -7.21918
rhand -19.6978 16.2324
rfingers 7.12502
rthumb 6.63153 -13.6438
lclavicle 1.53959e-013 -3.85642e-014
lhumerus -40.6273 8.39533 78.4734
lradius 30.5806
lwrist 2.97862
lhand -19.0511 21.3203
lfingers 7.12502
lthumb 7.2558 51.1759
rfemur -10.6112 -15.7654 23.5181
rtibia 42.8803
rfoot -19.183 -12.5473
rtoes 4.7798
lfemur -9.47983 8.21783 -17.3667
ltibia 32.7247
lfoot -16.4048 5.45854
ltoes -6.27259
3645
root 9.55419 17.8046 31.1195 3.05332 -51.5429 -3.9414
lowerback 5.98264 0.215459 1.00424
upperback 2.06971 0.347684 2.18407
thorax -1.23088 0.156472 1.65749
lowerneck -11.3627 -7.93551 -12.737
upperneck 25.4209 -10.6441 7.02633
head 11.1882 -5.40396 3.21132
rclavicle 7.45443e-015 -6.75868e-015
rhumerus -29.8928 -13.8752 -75.6868
rradius 26.5012
rwrist -7.85378
rhand -19.8125 16.6444
rfingers 7.12502
rthumb 6.52082 -13.2353
lclavicle 7.45443e-015 -6.75868e-015
lhumerus -40.7734 8.3587 78.3144
lradius 30.5808
lwrist 3.10697
lhand -18.8701 21.2969
lfingers 7.12502
lthumb 7.43054 51.1464
rfemur -10.289 -15.9564 22.904
rtibia 42.4824
rfoot -19.2276 -12.3827
rtoes 3.16108
lfemur -9.49054 8.41287 -17.9783
ltibia 32.8264
lfoot -16.4056 5.89232
ltoes -4.18687
